<mxfile host="app.diagrams.net" modified="2023-12-18T07:13:30.728Z" agent="Mozilla/5.0 (Macintosh; Intel Mac OS X 10_15_7) AppleWebKit/537.36 (KHTML, like Gecko) Chrome/118.0.5993.806 YaBrowser/23.11.2.806 Yowser/2.5 Safari/537.36" version="22.1.11" etag="3OeSU-vm2Ht3p_TAP9BQ" type="github">
  <diagram name="Страница — 1" id="rKKE9VCs7C_R3nDk2qkg">
    <mxGraphModel>
      <root>
        <mxCell id="0" />
        <mxCell id="1" parent="0" />
      </root>
    </mxGraphModel>
  </diagram>
</mxfile>
